Coordinates
version=1
nRows=13
nColumns=40
inDegrees=yes

Units are S.I. units (second, meters, Newtons, ...)
Angles are in degrees.

endheader
time	pelvis_tilt	pelvis_list	pelvis_rotation	pelvis_tx	pelvis_ty	pelvis_tz	hip_flexion_r	hip_adduction_r	hip_rotation_r	knee_angle_r	knee_angle_r_beta	ankle_angle_r	subtalar_angle_r	mtp_angle_r	hip_flexion_l	hip_adduction_l	hip_rotation_l	knee_angle_l	knee_angle_l_beta	ankle_angle_l	subtalar_angle_l	mtp_angle_l	lumbar_extension	lumbar_bending	lumbar_rotation	arm_flex_r	arm_add_r	arm_rot_r	elbow_flex_r	pro_sup_r	wrist_flex_r	wrist_dev_r	arm_flex_l	arm_add_l	arm_rot_l	elbow_flex_l	pro_sup_l	wrist_flex_l	wrist_dev_l
     37.04300000	     -3.60939970	     -5.62725594	      3.69198962	      1.09787492	      0.92465517	      0.50753860	      0.72683075	      3.97881965	    -14.92770207	     10.39308577	     10.39308577	     14.84410371	      3.41073837	     -7.11904957	     27.18756112	     -8.23542135	     -1.51028164	     22.99360562	     22.99360562	      4.00404615	    -11.21114647	      3.97376801	     -8.81769747	      5.38188920	      3.10868971	     23.43996678	    -16.36384992	      7.02708596	     69.85794007	     44.43006843	      0.00000000	      0.00000000	     -2.12634809	    -10.20235112	    -14.62036723	     26.70497775	     47.63718388	      0.00000000	      0.00000000
     37.05600000	     -3.55059999	     -5.56080283	      3.73940730	      1.09950178	      0.92406138	      0.50525190	      0.39783331	      3.73781786	    -14.82413206	     10.85275339	     10.85275339	     15.39327877	      3.13022488	     -6.50216814	     26.77230987	     -7.94735808	     -1.26060922	     23.46583401	     23.46583401	      4.19919308	    -11.86838378	      3.45715281	     -8.71393439	      5.25870355	      3.09835191	     22.78371217	    -16.19225722	      7.45460227	     69.85356481	     44.42701981	      0.00000000	      0.00000000	     -2.02803043	    -10.28353960	    -14.80690487	     27.08095145	     47.64998017	      0.00000000	      0.00000000
     37.06900000	     -3.52931445	     -5.46141345	      3.80102086	      1.10109075	      0.92362174	      0.50283293	     -0.01478857	      3.47199738	    -14.74711039	     11.03538933	     11.03538933	     15.65363522	      3.02019301	     -6.44971433	     26.39859085	     -7.64192992	     -1.01486542	     23.86586713	     23.86586713	      4.75489701	    -12.09571507	      3.13170240	     -8.57806256	      5.06736559	      2.96687498	     22.11081648	    -15.89440034	      7.67434901	     69.71282911	     44.42310390	      0.00000000	      0.00000000	     -1.83725403	    -10.41051816	    -14.83611133	     27.19852843	     47.65580093	      0.00000000	      0.00000000
     37.08200000	     -3.39309802	     -5.29880170	      3.91341218	      1.10250414	      0.92346170	      0.50019163	     -0.37998314	      3.09694517	    -14.71000636	     11.54721710	     11.54721710	     15.94202542	      2.72270886	     -6.23463856	     26.08643277	     -7.26705029	     -0.77835851	     24.51165675	     24.51165675	      5.25431659	    -12.53232387	      2.79835758	     -8.60981966	      4.82612640	      2.86192975	     21.25673209	    -15.64922016	      7.95907432	     69.48555944	     44.42102520	      0.00000000	      0.00000000	     -1.53742676	    -10.58338955	    -14.89118518	     27.42706317	     47.66501781	      0.00000000	      0.00000000
     37.09500000	     -3.29366543	     -5.14705798	      4.04000381	      1.10383353	      0.92342183	      0.49731218	     -0.65671322	      2.69866794	    -14.67122175	     12.13352866	     12.13352866	     16.19138781	      2.39816702	     -6.05505808	     25.79952290	     -6.87436522	     -0.43477402	     25.07086026	     25.07086026	      5.82241289	    -12.87714553	      2.49374688	     -8.61056918	      4.63718020	      2.72532776	     20.38154578	    -15.43640269	      8.22370853	     69.21594894	     44.42012095	      0.00000000	      0.00000000	     -1.17544443	    -10.65585004	    -14.91917573	     27.66955639	     47.67153669	      0.00000000	      0.00000000
     37.10800000	     -3.18199739	     -5.00528027	      4.14660189	      1.10499044	      0.92351143	      0.49432559	     -0.79597139	      2.26494539	    -14.61217898	     12.98529262	     12.98529262	     16.42805625	      1.98833663	     -5.87086539	     25.52552428	     -6.49652332	     -0.12864981	     25.63334626	     25.63334626	      6.41514868	    -13.27954047	      2.24167716	     -8.67590460	      4.46322107	      2.62546416	     19.44910151	    -15.29499184	      8.48702891	     68.86094595	     44.42210771	      0.00000000	      0.00000000	     -0.73651531	    -10.73203194	    -14.94421979	     27.96462080	     47.67847404	      0.00000000	      0.00000000
     37.12100000	     -3.36624686	     -4.80903199	      4.09463558	      1.10558329	      0.92333823	      0.49129064	      0.13451218	      1.55574450	    -14.25536020	     15.35594525	     15.35594525	     18.27651357	      1.41706542	     -1.66593652	     25.57400304	     -5.99961436	      0.25458076	     26.19782374	     26.19782374	      7.33689409	    -13.97568924	      3.51626758	     -8.48723966	      4.22302966	      2.84177485	     18.57561127	    -15.57166147	      8.94170756	     68.31418444	     44.49011393	      0.00000000	      0.00000000	     -0.35421015	    -10.70570662	    -15.11285574	     29.04255918	     47.61156866	      0.00000000	      0.00000000
     37.13400000	     -3.25427539	     -4.66695858	      4.08782684	      1.10646500	      0.92359595	      0.48819976	      0.36712519	      0.99257025	    -14.14099331	     16.86138867	     16.86138867	     18.37476189	      0.95924834	     -1.92842797	     25.24098534	     -5.67826091	      0.31148155	     26.64852906	     26.64852906	      7.91933180	    -14.19347649	      3.31868690	     -8.60907464	      4.07477339	      2.88475895	     17.67052590	    -15.55976941	      9.14648502	     67.67142870	     44.50854772	      0.00000000	      0.00000000	      0.25750486	    -10.73185826	    -15.08969218	     29.36261181	     47.60685131	      0.00000000	      0.00000000
     37.14700000	     -3.27889156	     -4.53893638	      4.03925410	      1.10716253	      0.92376280	      0.48508356	      1.00186641	      0.37829326	    -13.91742983	     18.79897354	     18.79897354	     18.36212976	      0.24017917	     -2.32564290	     24.97706123	     -5.35107261	      0.36455395	     26.94201861	     26.94201861	      8.45377783	    -14.43458314	      3.33719280	     -8.55276087	      3.93998498	      2.99107615	     16.63659339	    -15.55813434	      9.34270821	     66.76765892	     44.53873080	      0.00000000	      0.00000000	      0.85467090	    -10.68138727	    -15.01629233	     29.76486288	     47.58888115	      0.00000000	      0.00000000
     37.16000000	     -3.26203128	     -4.42841855	      3.91711829	      1.10778791	      0.92403328	      0.48207387	      1.78718279	     -0.25212168	    -13.58895917	     21.06390717	     21.06390717	     18.21776914	     -0.60201488	     -2.96924228	     24.62120529	     -5.08381800	      0.27453102	     27.17201169	     27.17201169	      8.98069516	    -14.64959311	      3.42408272	     -8.55592494	      3.82441642	      3.09899272	     15.68924947	    -15.55600193	      9.50180461	     65.70406316	     44.57632738	      0.00000000	      0.00000000	      1.46305854	    -10.64482508	    -14.89850410	     30.25073647	     47.56375721	      0.00000000	      0.00000000
     37.17300000	     -3.21582382	     -4.33052741	      3.72961244	      1.10828973	      0.92436846	      0.47918021	      2.75547858	     -0.90438717	    -13.15353143	     23.66955175	     23.66955175	     17.86409629	     -1.49633853	     -3.82297035	     24.17906673	     -4.86319787	      0.13479240	     27.31640666	     27.31640666	      9.47371822	    -14.75895594	      3.46014482	     -8.65714451	      3.71511466	      3.21741476	     14.77965177	    -15.54157574	      9.65730575	     64.55657749	     44.61490670	      0.00000000	      0.00000000	      2.04760017	    -10.61128401	    -14.76432664	     30.78102299	     47.53917834	      0.00000000	      0.00000000
     37.18600000	     -3.13188879	     -4.24743915	      3.50321689	      1.10870777	      0.92473586	      0.47637463	      3.91548929	     -1.57414034	    -12.65151638	     26.64579112	     26.64579112	     17.30600461	     -2.51751687	     -4.85901988	     23.66986472	     -4.68546205	     -0.11327079	     27.41337139	     27.41337139	      9.91015279	    -14.83425500	      3.45747025	     -8.78137763	      3.63985298	      3.31156660	     13.91538136	    -15.52971241	      9.79588262	     63.31802423	     44.65581730	      0.00000000	      0.00000000	      2.66259744	    -10.58228984	    -14.61452895	     31.37240581	     47.51564624	      0.00000000	      0.00000000
     37.19900000	     -3.14422259	     -4.21774779	      3.25416030	      1.10898818	      0.92498530	      0.47376588	      5.20219193	     -2.10329871	    -11.94477782	     29.37850131	     29.37850131	     14.78889750	     -4.74558668	    -10.49079720	     23.27399137	     -4.56272507	     -0.32821384	     27.52422055	     27.52422055	     10.56175445	    -14.81956868	      4.03093291	     -8.75388191	      3.57599417	      2.92465318	     13.83549322	    -14.94471013	     10.05516847	     59.91692299	     44.83587425	      0.00000000	      0.00000000	      2.35602162	    -10.92140172	    -12.94285390	     33.37913851	     47.16069743	      0.00000000	      0.00000000
